<?xml version="1.0" encoding="utf-8"?>
<!-- Generator: Adobe Illustrator 26.1.0, SVG Export Plug-In . SVG Version: 6.00 Build 0)  -->
<svg version="1.1"
	 id="svg5" xmlns:inkscape="http://www.inkscape.org/namespaces/inkscape" xmlns:sodipodi="http://sodipodi.sourceforge.net/DTD/sodipodi-0.dtd" xmlns:svg="http://www.w3.org/2000/svg"
	 xmlns="http://www.w3.org/2000/svg" xmlns:xlink="http://www.w3.org/1999/xlink" x="0px" y="0px" viewBox="0 0 992.1 878.7"
	 style="enable-background:new 0 0 992.1 878.7;" xml:space="preserve">
<style type="text/css">
	.st0{opacity:0.88;fill:#24232B;enable-background:new    ;}
	.st1{fill:#A0A25C;}
	.st2{fill:#963C3C;}
	.st3{fill:none;}
	.st4{fill:#080000;}
	.st5{fill:#04000E;}
	.st6{fill:#7B7B7B;}
</style>
<path id="path6-9" class="st0" d="M-269.5,658.3c-62.7,0-113.3,50.8-113.3,113.3v815.1c0,62.7,50.8,113.3,113.3,113.3H823.9
	c62.7,0,113.3-50.8,113.3-113.3v-815c0-62.6-50.8-113.4-113.3-113.4L-269.5,658.3L-269.5,658.3z M-326.5,699.6
	c4.7,0,8.5,3.8,8.5,8.5s-3.8,8.5-8.5,8.5s-8.5-3.8-8.5-8.5C-335,703.4-331.1,699.6-326.5,699.6z M872.6,699.6c4.7,0,8.5,3.8,8.5,8.5
	s-3.8,8.5-8.5,8.5s-8.5-3.8-8.5-8.5C864.1,703.4,867.9,699.6,872.6,699.6z M447.7,741.4c4.7,0,8.5,3.8,8.5,8.5s-3.8,8.5-8.5,8.5
	s-8.5-3.8-8.5-8.5S443,741.4,447.7,741.4z M561.1,741.4c4.7,0,8.5,3.8,8.5,8.5s-3.8,8.5-8.5,8.5s-8.5-3.8-8.5-8.5
	S556.4,741.4,561.1,741.4z M447.7,854.8c4.7,0,8.5,3.8,8.5,8.5s-3.8,8.5-8.5,8.5s-8.5-3.8-8.5-8.5S443,854.8,447.7,854.8z
	 M561.1,854.8c4.7,0,8.5,3.8,8.5,8.5s-3.8,8.5-8.5,8.5s-8.5-3.8-8.5-8.5S556.4,854.8,561.1,854.8z M144.1,1173.1
	c4.7,0,8.5,3.8,8.5,8.5c0,4.6-3.8,8.5-8.5,8.5c-4.6,0-8.5-3.8-8.5-8.5C135.6,1177,139.4,1173.1,144.1,1173.1z M19.9,1173.4
	c4.7,0,8.5,3.8,8.5,8.5s-3.8,8.5-8.5,8.5s-8.5-3.8-8.5-8.5C11.3,1177.2,15.1,1173.4,19.9,1173.4z M143,1232.8c4.7,0,8.5,3.8,8.5,8.5
	c0,4.6-3.7,8.5-8.5,8.5c-4.6,0-8.5-3.8-8.5-8.5C134.6,1236.6,138.3,1232.8,143,1232.8z M20.9,1233.1c4.7,0,8.5,3.8,8.5,8.5
	s-3.8,8.5-8.5,8.5s-8.5-3.8-8.5-8.5S16.2,1233.1,20.9,1233.1z M-326.5,1628.3c4.7,0,8.5,3.8,8.5,8.5s-3.8,8.5-8.5,8.5
	s-8.5-3.8-8.5-8.5C-335,1632.1-331.1,1628.3-326.5,1628.3z M872.6,1628.3c4.7,0,8.5,3.8,8.5,8.5s-3.8,8.5-8.5,8.5s-8.5-3.8-8.5-8.5
	C864.1,1632.1,867.9,1628.3,872.6,1628.3z"/>
<path id="path6" class="st0" d="M-269.5-401.5c-62.7,0-113.3,50.8-113.3,113.3v815.1c0,62.7,50.8,113.3,113.3,113.3H823.9
	c62.7,0,113.3-50.8,113.3-113.3v-815c0-62.6-50.8-113.4-113.3-113.4L-269.5-401.5L-269.5-401.5z M-326.5-360.2
	c4.7,0,8.5,3.8,8.5,8.5s-3.8,8.5-8.5,8.5s-8.5-3.8-8.5-8.5C-335-356.4-331.1-360.2-326.5-360.2z M872.6-360.2c4.7,0,8.5,3.8,8.5,8.5
	l0,0c0,4.7-3.8,8.5-8.5,8.5l0,0c-4.7,0-8.5-3.8-8.5-8.5C864.1-356.4,867.9-360.2,872.6-360.2z M507.6-359.1
	c57.7,0,104.5,46.8,104.5,104.5l0,0c0,57.7-46.8,104.5-104.5,104.5s-104.5-46.8-104.5-104.5C403.2-312.4,449.9-359.1,507.6-359.1
	L507.6-359.1z M106.2-288.4c242.7,0,439.4,196.7,439.4,439.4S348.8,590.4,106.2,590.4S-333.2,393.6-333.2,151
	S-136.5-288.4,106.2-288.4z M872.6,568.5c4.7,0,8.5,3.8,8.5,8.5s-3.8,8.5-8.5,8.5l0,0c-4.7,0-8.5-3.8-8.5-8.5l0,0
	C864.1,572.3,867.9,568.5,872.6,568.5z M-326.5,568.5c4.7,0,8.5,3.8,8.5,8.5s-3.8,8.5-8.5,8.5s-8.5-3.8-8.5-8.5l0,0
	C-335,572.3-331.1,568.5-326.5,568.5L-326.5,568.5z"/>
<path id="circle853" class="st1" d="M82.1,1160.5c-27.8,0-50.3,22.5-50.3,50.3s22.5,50.3,50.3,50.3l0,0c27.8,0,50.3-22.5,50.3-50.3
	C132.3,1183,109.8,1160.5,82.1,1160.5z M106.2,1203c2.6,0,5,1.3,6.4,3.3v9c-1.4,2-3.8,3.3-6.4,3.3c-4.3,0-7.8-3.5-7.8-7.8
	S101.9,1203,106.2,1203z"/>
<path id="path8_00000178897569029278059790000000882991904798658729_-5" sodipodi:nodetypes="ssssscssscc" class="st2" d="
	M104.6-274.2c-234.8,0-425.2,190.4-425.2,425.2s190.4,425.2,425.2,425.2S529.8,385.8,529.8,151S339.4-274.2,104.6-274.2z M111,155.5
	c-1.4,2-3.8,3.3-6.4,3.3c-4.3,0-7.8-3.5-7.8-7.8s3.5-7.8,7.8-7.8c2.6,0,5,1.3,6.4,3.3V155.5z"/>
<g id="g21">
	<path id="path9" class="st3" d="M659.4-469.9c-1.1,2.3-3.7,3.2-6,2.1l-25.6-12.1c-2.3-1.1-3.2-3.7-2.1-6c1.1-2.3,3.7-3.2,6-2.1
		l25.6,12.1c0.8,0.3,1.3,0.8,1.9,1.6C659.9-473.1,660.1-471.4,659.4-469.9L659.4-469.9z"/>
	<path id="path11" class="st3" d="M679.1-512.1c-0.8,1.6-2.4,2.5-4,2.5c-0.7,0-1.3-0.1-2-0.4l-25.6-12.1c-2.3-1.1-3.2-3.7-2.1-6
		c0.8-1.6,2.4-2.7,4.1-2.5c0.7,0,1.3,0.1,1.9,0.4l25.6,12.1c0.8,0.4,1.5,0.9,1.9,1.6C679.7-515.3,679.8-513.5,679.1-512.1
		L679.1-512.1z"/>
	<path id="path17" d="M673.3-509.9L647.7-522c-2.3-1.1-3.2-3.7-2.1-6c0.8-1.6,2.4-2.5,4-2.5c-1.7,0-3.3,0.9-4.1,2.5
		c-1.1,2.3-0.1,4.9,2.1,6L673.3-509.9c0.5,0.3,1.2,0.4,1.9,0.4C674.5-509.5,673.9-509.7,673.3-509.9L673.3-509.9z M657.3-475.9
		c0.8,0.4,1.3,0.9,1.9,1.6C658.6-475.1,658.1-475.7,657.3-475.9z"/>
	<path id="path14" d="M602.5-522.7l-2.5,0.1l0.5-1.1C601.1-523.4,601.8-523,602.5-522.7z"/>
</g>
<path id="path7237" class="st4" d="M166.7-446.3l0.1,34.8h6.9v-17.4h8.5v17.4h35.2v-34.8H166.7z M201.1-437c4.7,0,8.5,3.8,8.5,8.5
	s-3.8,8.5-8.5,8.5l0,0c-4.7,0-8.5-3.8-8.5-8.5l0,0C192.5-433.2,196.4-437,201.1-437z"/>
<path id="rect6754" d="M326-442.8v31.2h-70.9V-423h35.4v-8.5h-35.4v-11.3H326z"/>
<path id="circle7239" class="st5" d="M-70.3-444.5v31.2H43.1v-11.3h-70.9v-8.5h70.9v-11.3H-70.3V-444.5z M-53.3-437.4
	c4.7,0,8.5,3.8,8.5,8.5s-3.8,8.5-8.5,8.5l0,0c-4.7,0-8.5-3.8-8.5-8.5l0,0C-61.8-433.6-58-437.4-53.3-437.4L-53.3-437.4z"/>
<defs>
	
		<inkscape:path-effect  attempt_force_join="false" effect="offset" id="path-effect1174" is_visible="true" linejoin_type="miter" lpeversion="1" miter_limit="4" offset="5" unit="mm" update_on_knot_move="true">
		</inkscape:path-effect>
	
		<inkscape:path-effect  attempt_force_join="false" effect="offset" id="path-effect5769" is_visible="true" linejoin_type="miter" lpeversion="1" miter_limit="4" offset="5" unit="mm" update_on_knot_move="true">
		</inkscape:path-effect>
	
		<inkscape:path-effect  attempt_force_join="false" effect="offset" id="path-effect5587" is_visible="true" linejoin_type="miter" lpeversion="1" miter_limit="4" offset="5" unit="mm" update_on_knot_move="true">
		</inkscape:path-effect>
	
		<inkscape:path-effect  attempt_force_join="false" effect="offset" id="path-effect3830" is_visible="true" linejoin_type="miter" lpeversion="1" miter_limit="4" offset="1.5" unit="mm" update_on_knot_move="true">
		</inkscape:path-effect>
</defs>
<sodipodi:namedview  bordercolor="#666666" borderopacity="1.0" id="namedview7" inkscape:current-layer="svg5" inkscape:cx="214" inkscape:cy="92" inkscape:document-units="mm" inkscape:lockguides="true" inkscape:pagecheckerboard="false" inkscape:pageopacity="0.0" inkscape:pageshadow="2" inkscape:window-height="1017" inkscape:window-maximized="1" inkscape:window-width="1920" inkscape:window-x="-8" inkscape:window-y="-8" inkscape:zoom="0.25" pagecolor="#ffffff" scale-x="72" showgrid="false" showguides="false" units="in">
	</sodipodi:namedview>
<path id="path26" class="st4" d="M976.2-272.4l-0.5,1.1l2.5-0.1C977.6-271.7,976.9-272.1,976.2-272.4z"/>
<rect id="rect1329" x="48.2" y="594.8" class="st6" width="4.3" height="4.3"/>
<path id="path11_00000153693284566058398080000012134213762169015446_" class="st4" d="M663.3,1180.6l-0.4,0.8l1.9-0.1
	C664.4,1181.1,663.9,1180.8,663.3,1180.6z"/>
<path id="path37" sodipodi:nodetypes="sccccccccccccccccccccccccsccsccccccccccsccccccsscccccc" class="st5" d="M811.4-560.2
	c-2-0.2-3.2,1.7-1,5.1c2.3,2.5-5.3,23.1-12.4,28.7l-43.6-20.5l-30.7,2.1c-36-16.1-73.9-15.5-112.4,3l-0.8,0.4l-0.9,0.5
	c-1.7,0.9-33.6,18.4-100.4,27.6l-108.8,5.7l-476,1.4l-28.9,7.1h-155.9v11.3h42.5v8.5h-42.5v11.3h155.9l28.9,7l496.4-1.4
	c135.3-0.4,201.3-33.9,210.8-39.1c16.7-7.9,41.9-15.9,72.4-2.7c5.4,8.6,12,17.3,18,25.8l53.7,25.3c9.2-8,17.1-19.3,22.8-31.5
	s9.2-25.4,9.6-37.1c0.2,0,5.9-21.4,8.6-31C816-557.7,813.3-560,811.4-560.2z M763-531.4c0.7,0,1.3,0.1,2,0.4l25.6,12.1
	c0.8,0.4,1.5,0.9,1.9,1.6c0.7,1.4,0.8,3,0.2,4.4c-0.8,1.6-2.4,2.7-4.1,2.5c-0.7,0-1.3-0.1-2-0.4L761-522.9c-2.3-1.1-3.2-3.7-2.1-6
	C759.7-530.5,761.3-531.6,763-531.4z M743.3-489.3c0.6,0,1.2,0.2,1.8,0.5l25.6,12.1c0.8,0.3,1.3,0.8,1.9,1.6
	c0.7,1.2,0.9,2.9,0.2,4.4c-1.1,2.3-3.7,3.2-6,2.1l-25.6-12.1c-2.3-1.1-3.2-3.7-2.1-6C739.9-488.4,741.6-489.4,743.3-489.3z
	 M-75.6-489h46.5v4.5v4.5h-46.5V-489z"/>
<path id="path2569-3" d="M530.5-332.2c8.3-0.1,16.3,4,21.1,10.9c12.9,18.9,20.7,42,20.7,66.5s-7.6,47.6-20.7,66.5
	c-7.9,11.5-23.6,14.4-35.1,6.5s-14.4-23.6-6.5-35.1c7.5-10.8,11.7-23.7,11.7-38c0-14.3-4.3-27.2-11.7-38
	c-7.9-11.5-4.9-27.2,6.5-35.1c3.6-2.4,7.9-4,12.3-4.3C529.4-332.2,529.9-332.2,530.5-332.2L530.5-332.2z M537.3-305.2
	c-6.3,0-11.3,5.1-11.3,11.3c0,6.3,5.1,11.3,11.3,11.3l0,0c6.3,0,11.3-5.1,11.3-11.3l0,0C548.7-300.1,543.6-305.2,537.3-305.2
	L537.3-305.2z M535.9-225.6c-6.3,0-11.3,5.1-11.3,11.3l0,0c0,6.3,5.1,11.3,11.3,11.3c6.3,0,11.3-5.1,11.3-11.3
	C547.3-220.5,542.2-225.6,535.9-225.6L535.9-225.6z"/>
<path id="path4263" d="M467.8-331.7c8.3-0.1,16.3,4,21.1,10.9c12.9,18.9,20.7,42,20.7,66.5s-7.6,47.6-20.7,66.5
	c-7.9,11.5-23.6,14.4-35.1,6.5s-14.4-23.6-6.5-35.1c7.5-10.8,11.7-23.7,11.7-38c0-14.3-4.3-27.2-11.7-38
	c-7.9-11.5-4.9-27.2,6.5-35.1c3.6-2.4,7.9-4,12.3-4.3C466.6-331.7,467.2-331.7,467.8-331.7L467.8-331.7z M474.6-304.7
	c-6.3,0-11.3,5.1-11.3,11.3c0,6.3,5.1,11.3,11.3,11.3l0,0c6.3,0,11.3-5.1,11.3-11.3l0,0C485.9-299.6,480.9-304.7,474.6-304.7z
	 M473.2-225.2c-6.3,0-11.3,5.1-11.3,11.3l0,0c0,6.3,5.1,11.3,11.3,11.3c6.3,0,11.3-5.1,11.3-11.3S479.5-225.2,473.2-225.2
	L473.2-225.2z"/>
<path id="path32" sodipodi:nodetypes="cccccssssssssssssscsssssssssss" d="M968.3,700.1v141.7H1110V700.1H968.3z M982.4,705.8
	c4.7,0,8.5,3.8,8.5,8.5s-3.8,8.5-8.5,8.5s-8.5-3.8-8.5-8.5S977.7,705.8,982.4,705.8z M982.4,836.2c-4.7,0-8.5-3.8-8.5-8.5
	s3.8-8.5,8.5-8.5s8.5,3.8,8.5,8.5S987.1,836.2,982.4,836.2z M1039.1,801.1c-16.6,0-30.1-13.5-30.1-30.1s13.5-30.1,30.1-30.1
	s30.1,13.5,30.1,30.1C1069.3,787.6,1055.8,801.1,1039.1,801.1z M1095.8,705.8c4.7,0,8.5,3.8,8.5,8.5s-3.8,8.5-8.5,8.5
	s-8.5-3.8-8.5-8.5S1091.1,705.8,1095.8,705.8z M1095.8,836.2c-4.7,0-8.5-3.8-8.5-8.5s3.8-8.5,8.5-8.5s8.5,3.8,8.5,8.5
	S1100.5,836.2,1095.8,836.2z"/>
<path id="path32-3" sodipodi:nodetypes="cccccssssssssssssscsssssssssss" d="M969.1,857.1v141.7h141.7V857.1H969.1z M983.2,862.8
	c4.7,0,8.5,3.8,8.5,8.5s-3.8,8.5-8.5,8.5s-8.5-3.8-8.5-8.5S978.5,862.8,983.2,862.8z M983.2,993.3c-4.7,0-8.5-3.8-8.5-8.5
	s3.8-8.5,8.5-8.5s8.5,3.8,8.5,8.5S987.9,993.3,983.2,993.3z M1039.9,958.2c-16.6,0-30.1-13.5-30.1-30.1s13.5-30.1,30.1-30.1
	s30.1,13.5,30.1,30.1C1070.1,944.7,1056.6,958.2,1039.9,958.2z M1096.6,862.8c4.7,0,8.5,3.8,8.5,8.5s-3.8,8.5-8.5,8.5
	s-8.5-3.8-8.5-8.5S1091.9,862.8,1096.6,862.8z M1096.6,993.3c-4.7,0-8.5-3.8-8.5-8.5s3.8-8.5,8.5-8.5s8.5,3.8,8.5,8.5
	S1101.3,993.3,1096.6,993.3z"/>
<path id="path4363-5" class="st0" d="M1115.2-413.7c4.7,0,8.5,3.8,8.5,8.5s-3.8,8.5-8.5,8.5s-8.5-3.8-8.5-8.5
	S1110.5-413.7,1115.2-413.7z M1115.2-283.3c-4.7,0-8.5-3.8-8.5-8.5s3.8-8.5,8.5-8.5s8.5,3.8,8.5,8.5S1119.9-283.3,1115.2-283.3z
	 M1228.6-413.7c4.7,0,8.5,3.8,8.5,8.5s-3.8,8.5-8.5,8.5s-8.5-3.8-8.5-8.5S1223.9-413.7,1228.6-413.7z M1228.6-283.3
	c-4.7,0-8.5-3.8-8.5-8.5s3.8-8.5,8.5-8.5s8.5,3.8,8.5,8.5C1237.1-287.1,1233.3-283.3,1228.6-283.3z"/>
<path id="rect6041" sodipodi:nodetypes="cccccccccccc" d="M-259.7-446.2v31.2v1.4c0,2.6,5.7,2.7,5.7,0v-1.4h150.2v-11.3h-113.4v-8.5
	h113.4v-11.3h-155.9V-446.2z"/>
</svg>
